<svg xmlns="http://www.w3.org/2000/svg" width="158" height="28" viewBox="0 0 158 28">
    <path data-name="사각형 486" style="fill:none" d="M0 0h158v28H0z"/>
    <path data-name="패스 860" d="M9.156 4.588 5.6 14.472h3.556v1.68H5.012l-2.996 8.316-1.596-.616L7.532 4.028zm7.392 19.292-1.6.644L9.492 9.068l1.6-.644zm6.72-19.544 6.356 13.752-1.512.784-5.46-11.816-3.304 17.356-1.68-.336 3.752-19.74zM37.8 24.44 34.048 7.164l-2.576 6.272-1.572-.648 3.472-8.456H35.2l4.28 19.772zm12.824.084a8.939 8.939 0 0 1-4.76-1.3 9.177 9.177 0 0 1-3.346-3.586 10.68 10.68 0 0 1-1.218-5.11 12.539 12.539 0 0 1 .6-3.934 10.23 10.23 0 0 1 1.722-3.234L44.8 8.648a8.266 8.266 0 0 0-1.3 2.52 9.951 9.951 0 0 0-.462 3.08 9.6 9.6 0 0 0 .994 4.382 7.729 7.729 0 0 0 2.73 3.094 6.978 6.978 0 0 0 3.864 1.12 6.978 6.978 0 0 0 3.864-1.12 7.729 7.729 0 0 0 2.73-3.094 9.6 9.6 0 0 0 .994-4.382 9.518 9.518 0 0 0-.994-4.368 7.751 7.751 0 0 0-2.73-3.08 6.978 6.978 0 0 0-3.864-1.12 6.851 6.851 0 0 0-2.94.616l-.84-1.484A8.691 8.691 0 0 1 50.626 4a8.939 8.939 0 0 1 4.76 1.3 9.177 9.177 0 0 1 3.344 3.588 10.621 10.621 0 0 1 1.218 5.082 11.74 11.74 0 0 1-1.218 5.374 9.586 9.586 0 0 1-3.346 3.794 8.534 8.534 0 0 1-4.76 1.386zm22.82-14.5a5.335 5.335 0 0 1-1.694 4.13 6.428 6.428 0 0 1-4.522 1.554H64.96v8.48h-1.736V4.336h1.736v9.716h2.3a4.615 4.615 0 0 0 3.24-1.106 3.784 3.784 0 0 0 1.2-2.926 3.74 3.74 0 0 0-1.2-2.912 4.651 4.651 0 0 0-3.248-1.092H67.2v-1.68h.056a6.388 6.388 0 0 1 4.494 1.552 5.335 5.335 0 0 1 1.694 4.132zm.5 13.132-1.2 1.172-4.984-5.488 1.288-1.092zm12.88-.644v1.676H77V4.336h1.736v8.68H86.1v1.68h-7.364v7.812zm-.14-16.492H81.2V4.34h5.488zm14.2-1.68 6.356 13.748-1.512.784-5.46-11.816-3.304 17.356-1.68-.336 3.752-19.74zm14.532 20.1-3.752-17.276-2.576 6.272-1.568-.648 3.472-8.456h1.82l4.288 19.772zm11.536-19.852-3.552 9.884h3.556v1.68h-4.144l-3 8.316-1.6-.616 7.112-19.824zm7.392 19.292-1.6.644-5.46-15.456 1.6-.644zm2.576-19.544h1.736v19.852h-1.736zm4.368 18.172h4.424v1.68h-4.424zm7.42-18.172h1.736v19.852h-1.736zm4.368 18.172h4.424v1.68h-4.424z"/>
</svg>
